<svg width="542" height="80" viewBox="0 0 542 80" fill="none" xmlns="http://www.w3.org/2000/svg">
<rect x="273.352" y="18.6719" width="5.69573" height="42.718" fill="white"/>
<rect x="300.695" y="37.4688" width="5.69573" height="27.3395" transform="rotate(90 300.695 37.4688)" fill="white"/>
<rect x="310.984" y="18.6719" width="5.71978" height="37.6301" transform="rotate(90 310.984 18.6719)" fill="white"/>
<rect x="310.984" y="55.7031" width="5.71978" height="37.6301" transform="rotate(90 310.984 55.7031)" fill="white"/>
<rect x="365.773" y="18.6719" width="5.69573" height="42.718" fill="white"/>
<rect x="403.406" y="18.6719" width="5.71978" height="37.6301" transform="rotate(90 403.406 18.6719)" fill="white"/>
<rect x="403.406" y="55.7031" width="5.71978" height="37.6301" transform="rotate(90 403.406 55.7031)" fill="white"/>
<rect x="104.469" y="18.6875" width="5.69573" height="42.718" fill="white"/>
<rect x="126.141" y="18.6719" width="5.71978" height="37.6301" transform="rotate(90 126.141 18.6719)" fill="white"/>
<rect x="227.141" y="18.6719" width="5.69573" height="42.718" fill="white"/>
<rect x="259.039" y="18.6719" width="5.69573" height="42.718" fill="white"/>
<rect x="264.734" y="18.6719" width="5.69573" height="37.5918" transform="rotate(90 264.734 18.6719)" fill="white"/>
<rect x="264.734" y="55.6953" width="5.69573" height="37.5918" transform="rotate(90 264.734 55.6953)" fill="white"/>
<rect x="180.938" y="18.6719" width="5.69573" height="42.718" fill="white"/>
<rect x="212.836" y="18.6719" width="5.69573" height="42.718" fill="white"/>
<rect x="218.531" y="18.6719" width="5.69573" height="37.5918" transform="rotate(90 218.531 18.6719)" fill="white"/>
<rect x="218.531" y="37.4688" width="5.69573" height="37.5918" transform="rotate(90 218.531 37.4688)" fill="white"/>
<rect x="218.531" y="43.1641" width="5.69573" height="24.4916" transform="rotate(-180 218.531 43.1641)" fill="white"/>
<rect x="458.195" y="18.6719" width="5.69573" height="42.718" fill="white"/>
<rect x="490.094" y="18.6719" width="5.69573" height="42.718" fill="white"/>
<rect x="495.789" y="18.6719" width="5.69573" height="37.5918" transform="rotate(90 495.789 18.6719)" fill="white"/>
<rect x="495.789" y="37.4688" width="5.69573" height="37.5918" transform="rotate(90 495.789 37.4688)" fill="white"/>
<rect x="495.789" y="43.1641" width="5.69573" height="24.4916" transform="rotate(-180 495.789 43.1641)" fill="white"/>
<rect x="134.727" y="18.6719" width="5.69573" height="42.718" fill="white"/>
<rect x="172.32" y="18.6719" width="5.69573" height="37.5918" transform="rotate(90 172.32 18.6719)" fill="white"/>
<rect x="172.32" y="37.4688" width="5.69573" height="37.5918" transform="rotate(90 172.32 37.4688)" fill="white"/>
<rect x="172.32" y="43.1641" width="5.69573" height="24.4916" transform="rotate(-180 172.32 43.1641)" fill="white"/>
<path d="M174.023 61.2109L167.285 61.211L155.324 40.4938L160.257 37.646L174.023 61.2109Z" fill="white"/>
<rect x="319.562" y="18.6719" width="5.69573" height="42.718" fill="white"/>
<rect x="357.156" y="18.6719" width="5.69573" height="37.5918" transform="rotate(90 357.156 18.6719)" fill="white"/>
<rect x="357.156" y="37.4688" width="5.69573" height="37.5918" transform="rotate(90 357.156 37.4688)" fill="white"/>
<rect x="357.156" y="43.1641" width="5.69573" height="24.4916" transform="rotate(-180 357.156 43.1641)" fill="white"/>
<path d="M358.859 61.2109L352.121 61.211L340.16 40.4938L345.093 37.646L358.859 61.2109Z" fill="white"/>
<rect x="411.984" y="18.6719" width="5.69573" height="42.718" fill="white"/>
<rect x="449.617" y="55.7031" width="5.71978" height="37.6301" transform="rotate(90 449.617 55.7031)" fill="white"/>
<rect x="542.008" y="61.3906" width="5.69573" height="42.718" transform="rotate(-180 542.008 61.3906)" fill="white"/>
<rect x="510.094" y="61.3906" width="5.69573" height="42.718" transform="rotate(-180 510.094 61.3906)" fill="white"/>
<rect x="504.398" y="61.3906" width="5.69573" height="37.5918" transform="rotate(-90 504.398 61.3906)" fill="white"/>
<rect x="520.359" y="35.8281" width="5.69573" height="25.0612" fill="white"/>
<rect x="79.9297" y="37.1797" width="5.71978" height="79.9263" transform="rotate(90 79.9297 37.1797)" fill="#F93728"/>
<rect x="70.125" y="66.1172" width="5.71978" height="79.9263" transform="rotate(135 70.125 66.1172)" fill="#F93728"/>
<rect x="42.75" y="79.9297" width="5.71978" height="79.9263" transform="rotate(-180 42.75 79.9297)" fill="#F93728"/>
<rect x="13.6719" y="70.125" width="5.71978" height="79.9263" transform="rotate(-135 13.6719 70.125)" fill="#F93728"/>
</svg>
